<svg width="1052" height="554" viewBox="0 0 1052 554" fill="none" xmlns="http://www.w3.org/2000/svg">
<rect width="1052" height="554" fill="#E5E5E5"/>
<g id="undraw_programmer_imem 1" clip-path="url(#clip0)">
<g id="background">
<path id="Vector" d="M961.069 444.041C959.91 446.54 958.753 449.006 957.601 451.438C955.801 455.217 954.026 458.923 952.273 462.555C951.493 464.165 950.713 465.744 949.954 467.324C941.357 484.888 933.331 500.423 926.514 513.199C920.328 524.776 911.143 534.475 899.921 541.282C888.699 548.089 875.854 551.752 862.73 551.888L711.143 553.537H709.544L696.549 553.677L685.434 553.797L651.348 554.167H649.969L632.616 554.357H632.086L525.131 555.517L429.66 556.516L418.555 556.636L349.584 557.386H349.504L304.772 557.866H304.293L162.851 559.395L120.539 559.855C116.936 559.896 113.334 559.716 109.754 559.315V559.315C108.534 559.175 107.315 559.015 106.105 558.825C86.3713 555.779 68.277 546.062 54.8364 531.294C36.634 511.27 23.3895 487.907 14.4932 462.555C13.2071 458.896 12.0076 455.191 10.8947 451.438C-19.9025 347.32 17.6419 212.992 85.2138 123.099C88.0459 119.34 90.9247 115.675 93.8502 112.103L93.9202 112.023C114.702 86.5104 138.002 65.1969 162.821 50.0416C206.803 23.1398 255.533 15.5622 303.463 38.1452C344.016 57.2594 381.88 66.2466 418.585 68.6858C422.293 68.9258 426.002 69.1057 429.69 69.2157C513.885 71.8649 592.793 41.5242 685.454 21.9402C689.142 21.1604 692.841 20.3907 696.569 19.6609C762.672 6.50493 836.001 -0.432932 923.205 14.1526C932.265 15.6328 941.205 17.7711 949.954 20.5506C953.799 21.7902 957.504 23.1232 961.069 24.5494C1002.69 41.4842 1025.39 72.7746 1035.04 111.983C1035.95 115.621 1036.74 119.324 1037.41 123.089C1054.51 217.4 1004.42 351.179 961.069 444.041Z" fill="#F2F2F2"/>
<path id="Vector_2" opacity="0.1" d="M496.802 451.438C496.4 455.178 495.775 458.89 494.933 462.555H588.594V451.438H496.802ZM418.585 514.229L429.69 514.139V486.678C425.882 486.508 422.174 486.338 418.585 486.158V514.229ZM185.762 451.438V462.555H384.179V451.438H185.762ZM1035.09 112.023H961.119V24.5594C957.554 23.1132 953.849 21.7803 950.004 20.5606V112.023H696.569V19.6309C692.841 20.3607 689.142 21.1305 685.454 21.9102V112.023H429.69V69.1857C426.002 69.0757 422.293 68.8958 418.585 68.6559V112.023H162.821V50.0416C138.002 65.1969 114.702 86.5104 93.9202 112.023H93.8502V112.103C90.9181 115.701 88.0393 119.367 85.2138 123.099H93.8502V451.438H10.8847C11.9909 455.191 13.1904 458.896 14.4832 462.555H93.8402V556.146C97.833 557.368 101.908 558.3 106.035 558.935C107.245 559.125 108.464 559.285 109.684 559.425C113.264 559.826 116.866 560.006 120.469 559.965L162.782 559.505V462.535H418.585V556.716L429.69 556.596V462.555H685.454V553.887L696.569 553.767V462.555H949.954V467.323C950.714 465.744 951.493 464.164 952.273 462.555C954.026 458.923 955.801 455.217 957.601 451.438C958.754 449.012 959.91 446.547 961.069 444.041V123.139H1037.46C1036.78 119.347 1035.99 115.641 1035.09 112.023ZM162.821 451.438V123.099H418.585V451.438H162.821ZM429.71 451.438V123.099H685.454V451.438H429.71ZM949.974 451.438H696.569V123.099H949.954L949.974 451.438Z" fill="black"/>
</g>
<g id="monitor3">
<path id="Vector_3" d="M730.698 507.084H683.044V538.575H730.698V507.084Z" fill="#3F3D56"/>
<path id="Vector_4" opacity="0.1" d="M730.698 507.084H683.044V538.575H730.698V507.084Z" fill="black"/>
<path id="Vector_5" d="M728.678 507.084H681.024V538.575H728.678V507.084Z" fill="#3F3D56"/>
<path id="Vector_6" opacity="0.1" d="M728.678 507.084V513.492L681.024 512.233V507.084H728.678Z" fill="black"/>
<path id="Vector_7" d="M791.576 335.847V509.094C791.563 510.146 791.131 511.15 790.375 511.889C789.618 512.628 788.598 513.043 787.535 513.043V513.043L593.879 507.944C592.842 507.906 591.861 507.474 591.137 506.739C590.412 506.004 590.002 505.022 589.99 503.995V335.847C590.003 334.804 590.427 333.807 591.173 333.069C591.918 332.331 592.926 331.911 593.98 331.898H787.545C788.607 331.901 789.624 332.316 790.378 333.055C791.133 333.794 791.563 334.797 791.576 335.847V335.847Z" fill="#65617D"/>
<path id="Vector_8" opacity="0.1" d="M791.576 335.847V509.094C791.563 510.146 791.131 511.15 790.375 511.889C789.618 512.628 788.598 513.043 787.535 513.043V513.043V331.898C788.598 331.898 789.618 332.313 790.375 333.052C791.131 333.791 791.563 334.795 791.576 335.847Z" fill="black"/>
<path id="Vector_9" d="M778.685 342.635H599.365V490.839L778.685 494.838V342.635Z" fill="#6C63FF"/>
<path id="Vector_10" opacity="0.1" d="M681.327 530.387V533.576C681.326 534.736 681.658 535.872 682.284 536.852C682.91 537.833 683.804 538.617 684.863 539.115L725.374 539.884C726.451 539.396 727.364 538.611 728.003 537.624C728.643 536.637 728.982 535.489 728.981 534.316V531.317L681.327 530.387Z" fill="black"/>
<path id="Vector_11" opacity="0.1" d="M680.822 540.994L733.608 541.994V533.326L680.822 532.327V540.994Z" fill="black"/>
<path id="Vector_12" d="M678.801 540.994L731.587 541.994V533.326L678.801 532.327V540.994Z" fill="#3F3D56"/>
<path id="Vector_13" d="M706.503 358H607.497C607.365 358 607.239 357.947 607.146 357.854C607.052 357.76 607 357.633 607 357.5C607 357.367 607.052 357.24 607.146 357.146C607.239 357.053 607.365 357 607.497 357H706.503C706.635 357 706.761 357.053 706.854 357.146C706.948 357.24 707 357.367 707 357.5C707 357.633 706.948 357.76 706.854 357.854C706.761 357.947 706.635 358 706.503 358Z" fill="#F2F2F2"/>
<path id="Vector_14" d="M706.503 379.5H607.497C607.365 379.5 607.239 379.474 607.146 379.427C607.052 379.38 607 379.316 607 379.25C607 379.184 607.052 379.12 607.146 379.073C607.239 379.026 607.365 379 607.497 379H706.503C706.635 379 706.761 379.026 706.854 379.073C706.948 379.12 707 379.184 707 379.25C707 379.316 706.948 379.38 706.854 379.427C706.761 379.474 706.635 379.5 706.503 379.5Z" fill="#F2F2F2"/>
<path id="Vector_15" d="M706.503 368.8H607.497C607.365 368.8 607.239 368.758 607.146 368.683C607.052 368.608 607 368.506 607 368.4C607 368.294 607.052 368.192 607.146 368.117C607.239 368.042 607.365 368 607.497 368H706.503C706.635 368 706.761 368.042 706.854 368.117C706.948 368.192 707 368.294 707 368.4C707 368.506 706.948 368.608 706.854 368.683C706.761 368.758 706.635 368.8 706.503 368.8Z" fill="#F2F2F2"/>
</g>
<g id="monitor2">
<path id="Vector_16" d="M578.372 317.852V486.001C578.359 487.027 577.949 488.01 577.225 488.745C576.501 489.48 575.519 489.911 574.482 489.95L380.867 495.048C379.804 495.048 378.783 494.634 378.027 493.895C377.271 493.155 376.839 492.151 376.826 491.099V317.852C376.839 316.809 377.263 315.812 378.009 315.075C378.754 314.337 379.762 313.917 380.816 313.904H574.381C575.435 313.917 576.443 314.337 577.188 315.075C577.934 315.812 578.359 316.809 578.372 317.852V317.852Z" fill="#65617D"/>
<path id="Vector_17" d="M389.696 324.64H569.017V472.845L389.696 476.844V324.64Z" fill="#6C63FF"/>
</g>
<g id="monitor1">
<path id="Vector_18" d="M279.083 507.094V531.577C279.084 532.736 278.752 533.872 278.126 534.853C277.5 535.833 276.606 536.618 275.547 537.115C274.759 537.493 273.898 537.698 273.022 537.715L237.764 538.455C236.822 538.477 235.888 538.282 235.036 537.885C233.959 537.396 233.046 536.612 232.407 535.625C231.768 534.637 231.428 533.489 231.429 532.317V507.094H279.083Z" fill="#3F3D56"/>
<path id="Vector_19" opacity="0.1" d="M279.083 507.094V531.577C279.084 532.736 278.752 533.872 278.126 534.853C277.5 535.833 276.606 536.618 275.547 537.115C274.759 537.493 273.898 537.698 273.022 537.715L237.764 538.455C236.822 538.477 235.888 538.282 235.036 537.885C233.959 537.396 233.046 536.612 232.407 535.625C231.768 534.637 231.428 533.489 231.429 532.317V507.094H279.083Z" fill="black"/>
<path id="Vector_20" d="M281.104 507.094V531.577C281.104 532.736 280.772 533.872 280.146 534.853C279.521 535.833 278.626 536.618 277.568 537.115C276.78 537.493 275.918 537.698 275.042 537.715L239.784 538.455C238.843 538.477 237.909 538.282 237.057 537.885C235.979 537.396 235.067 536.612 234.427 535.625C233.788 534.637 233.449 533.489 233.45 532.317V507.094H281.104Z" fill="#3F3D56"/>
<path id="Vector_21" opacity="0.1" d="M281.094 507.084V512.053L233.44 513.313V507.084H281.094Z" fill="black"/>
<path id="Vector_22" d="M365.208 335.847V503.995C365.195 505.022 364.785 506.004 364.061 506.739C363.337 507.474 362.355 507.906 361.318 507.944L167.703 513.043H167.652C166.598 513.03 165.59 512.609 164.845 511.872C164.099 511.134 163.675 510.137 163.662 509.094V335.847C163.675 334.804 164.099 333.807 164.845 333.069C165.59 332.331 166.598 331.911 167.652 331.898H361.217C362.271 331.911 363.279 332.331 364.024 333.069C364.77 333.807 365.195 334.804 365.208 335.847V335.847Z" fill="#65617D"/>
<path id="Vector_23" opacity="0.1" d="M167.703 331.898V513.043H167.652C166.598 513.03 165.59 512.609 164.845 511.872C164.099 511.134 163.675 510.137 163.662 509.094V335.847C163.675 334.804 164.099 333.807 164.845 333.069C165.59 332.331 166.598 331.911 167.652 331.898H167.703Z" fill="black"/>
<path id="Vector_24" d="M176.532 342.635H355.853V490.839L176.532 494.838V342.635Z" fill="#6C63FF"/>
<path id="Vector_25" opacity="0.1" d="M281.104 528.388V531.577C281.104 532.737 280.772 533.872 280.146 534.853C279.521 535.833 278.626 536.618 277.568 537.115L237.057 537.885C235.979 537.396 235.067 536.612 234.427 535.625C233.788 534.637 233.449 533.489 233.45 532.317V529.318L281.104 528.388Z" fill="black"/>
<path id="Vector_26" d="M281.599 538.995L228.813 539.994V531.327L281.599 530.327V538.995Z" fill="#3F3D56"/>
<path id="Vector_27" opacity="0.1" d="M281.599 538.995L228.813 539.994V531.327L281.599 530.327V538.995Z" fill="black"/>
<path id="Vector_28" d="M283.619 538.995L230.833 539.994V531.327L283.619 530.327V538.995Z" fill="#3F3D56"/>
</g>
<path id="codeline3" d="M283.286 375.065H182.664C182.53 375.065 182.402 375.012 182.307 374.919C182.213 374.825 182.159 374.698 182.159 374.565C182.159 374.433 182.213 374.305 182.307 374.212C182.402 374.118 182.53 374.065 182.664 374.065H283.286C283.42 374.065 283.548 374.118 283.643 374.212C283.738 374.305 283.791 374.433 283.791 374.565C283.791 374.698 283.738 374.825 283.643 374.919C283.548 375.012 283.42 375.065 283.286 375.065Z" fill="#F2F2F2"/>
<path id="codeline2" d="M283.286 366.068H182.664C182.53 366.068 182.402 366.015 182.307 365.921C182.213 365.828 182.159 365.7 182.159 365.568C182.159 365.435 182.213 365.308 182.307 365.214C182.402 365.121 182.53 365.068 182.664 365.068H283.286C283.42 365.068 283.548 365.121 283.643 365.214C283.738 365.308 283.791 365.435 283.791 365.568C283.791 365.7 283.738 365.828 283.643 365.921C283.548 366.015 283.42 366.068 283.286 366.068Z" fill="#F2F2F2"/>
<path id="codeline1" d="M283.286 357.07H182.664C182.53 357.07 182.402 357.018 182.307 356.924C182.213 356.83 182.159 356.703 182.159 356.571C182.159 356.438 182.213 356.311 182.307 356.217C182.402 356.123 182.53 356.071 182.664 356.071H283.286C283.42 356.071 283.548 356.123 283.643 356.217C283.738 356.311 283.791 356.438 283.791 356.571C283.791 356.703 283.738 356.83 283.643 356.924C283.548 357.018 283.42 357.07 283.286 357.07Z" fill="#F2F2F2"/>
<g id="human">
<path id="Vector_29" d="M489.706 377.321C518.346 377.321 541.562 354.347 541.562 326.007C541.562 297.667 518.346 274.693 489.706 274.693C461.066 274.693 437.85 297.667 437.85 326.007C437.85 354.347 461.066 377.321 489.706 377.321Z" fill="#FBBEBE"/>
<path id="Vector_30" d="M508.77 400.924C520.398 398.795 532.713 394.926 543.654 399.385C546.533 400.554 549.18 402.264 552.13 403.243C555.08 404.223 558.313 404.463 561.384 405.153C572.173 407.572 580.922 415.7 586.539 425.147C592.156 434.594 595.066 445.281 597.915 455.857L604.885 481.679C610.947 504.123 617.008 526.756 618.413 549.958C534.023 554.738 449.44 555.215 365 551.388C370.496 541.051 376.113 530.085 375.648 518.398C375.183 506.712 368.384 495.185 370.839 483.669C372.405 476.331 377.477 470.283 380.578 463.455C389.418 443.941 382.538 417.679 398.076 402.824C405.067 396.146 415.25 393.616 424.979 393.936C437.385 394.346 450.084 398.175 462.358 400.044C478.078 402.404 492.929 403.803 508.77 400.924Z" fill="#FF6584"/>
<path id="Vector_31" d="M456.903 341.732C456.984 348.73 453.711 355.328 450.932 361.796C440.817 385.357 436.436 410.94 438.143 436.483C438.88 447.48 440.749 458.476 438.88 469.373C437.011 480.27 430.364 491.136 419.685 494.265C437.395 504.712 461.368 503.613 478.038 491.606C486.918 485.208 493.535 476.281 500.011 467.504C499.241 483.271 494.628 498.62 486.564 512.24C501.14 510.963 515.283 506.671 528.076 499.641C540.869 492.611 552.027 483.001 560.828 471.433C565.182 465.624 568.971 459.246 570.648 452.208C573.769 439.212 569.415 425.707 566.092 412.721C563.314 401.865 561.232 390.846 559.858 379.731C559.424 376.172 559.07 372.513 559.959 369.034C560.969 364.965 563.667 361.526 565.657 357.817C571.315 347.281 571.446 334.525 568.546 322.948C565.647 311.372 559.969 300.695 554.342 290.148C549.836 281.691 544.947 272.843 536.703 267.875C531.551 264.776 525.59 263.486 519.65 262.237L494.02 256.808C488.413 255.619 482.644 254.429 476.977 255.299C467.41 256.778 460.671 263.616 454.751 270.634C450.114 276.092 438.779 286.339 437.981 293.487C437.254 300.075 443.133 311.112 444.133 318.06C445.447 327.057 446.376 324.058 451.508 329.576C454.751 332.995 456.842 336.944 456.903 341.732Z" fill="#3F3D56"/>
</g>
<g id="furniture">
<path id="Vector_32" opacity="0.2" d="M874.882 549.829V562.825L721.404 564.224L719.767 564.254L661.435 564.784L660.041 564.804L642.311 564.954H641.786L533.708 565.944L356.297 567.573H356.146L311.038 567.993L310.553 568.003L110.118 569.823V554.827L157.246 526.836L251.806 526.056L253.827 526.046L254.494 526.036L256.514 526.006L301.915 525.636L303.946 525.626L304.592 525.616L306.613 525.606L321.171 525.486L321.554 525.476L357.469 525.176H357.762L638.007 522.837L644.867 522.787H645.554L650.787 522.737L688.823 522.427L690.843 522.397L692.713 522.377H693.682L705.512 522.287L707.856 522.257L710.998 522.237L720.848 522.147L736.477 522.017L738.497 521.997L742.013 521.977H742.67L818.146 521.337L874.882 549.829Z" fill="black"/>
<path id="Vector_33" opacity="0.1" d="M874.882 549.829V562.825L721.404 564.224L719.767 564.254L661.435 564.784L660.041 564.804L642.311 564.954H641.786L533.708 565.944L356.297 567.573H356.146L311.038 567.993L310.553 568.003L110.118 569.823V554.827L314.705 553.498H315.19L356.6 553.218H356.792L642.776 551.348H643.069L643.24 551.338H643.715L648.554 551.308H650.029L725.283 550.808L729.728 550.788L730.718 550.778L874.882 549.829Z" fill="black"/>
<path id="Vector_34" d="M356.267 568.703V567.863L533.688 565.954L641.785 564.954H642.089V564.784L643.099 551.348L643.533 545.35L645.19 522.747L646.493 504.852V504.413C646.553 503.588 646.516 502.759 646.382 501.943C646.388 501.91 646.388 501.876 646.382 501.843C646.105 500.156 645.411 498.563 644.362 497.205C643.249 495.793 641.792 494.685 640.127 493.986C638.462 493.286 636.644 493.018 634.845 493.206C622.611 494.446 610.255 495.435 597.89 496.205C596.203 496.325 594.516 496.425 592.839 496.515C513.089 501.204 434.057 497.405 391.292 494.516L388.262 494.296C380.857 493.776 374.664 493.296 369.895 492.886C367.272 492.667 364.66 493.417 362.563 494.992C360.466 496.567 359.033 498.855 358.54 501.414C358.438 501.955 358.377 502.503 358.358 503.053L357.671 525.206L356.732 553.268L356.287 567.623V567.903V568.743L356.267 568.703Z" fill="#3F3D56"/>
<path id="Vector_35" opacity="0.1" d="M646.806 507.462L645.564 522.787L643.715 545.63L643.25 551.348L642.24 564.154L642.18 564.794V564.964L642.028 566.444L642.139 564.964H641.846L533.749 565.964L356.297 567.863V567.583L356.792 553.228L357.802 525.176L358.449 506.532C358.481 505.471 358.78 504.435 359.32 503.519C359.86 502.602 360.623 501.834 361.54 501.284C362.684 500.59 364.022 500.275 365.359 500.384C367.481 500.554 370.087 500.754 373.128 500.974C378.068 501.334 384.16 501.753 391.252 502.193C404.385 503.013 420.863 503.893 439.744 504.613C492.278 506.612 563.198 507.282 630.562 501.443C633.592 501.184 636.724 500.894 639.785 500.604C640.997 500.484 642.218 500.713 643.301 501.264C643.608 501.415 643.899 501.596 644.17 501.803C645.049 502.434 645.746 503.282 646.19 504.263C646.293 504.458 646.378 504.662 646.443 504.872C646.746 505.701 646.87 506.583 646.806 507.462V507.462Z" fill="black"/>
</g>
</g>
<defs>
<clipPath id="clip0">
<rect width="1052" height="554" fill="white"/>
</clipPath>
</defs>
</svg>
